<svg xmlns="http://www.w3.org/2000/svg" viewBox="0 0 1280 670">
  <path fill="#adbfb9" d="M714.5 121.5c2.155-.128 4.155.372 6 1.5-.667 1-1.333 2-2 3-25.416.481-46.249 10.315-62.5 29.5-3.008 4.553-4.174 9.553-3.5 15-1.624.14-2.79-.527-3.5-2-.946-6.171.388-11.838 4-17 16.549-18.336 37.049-28.336 61.5-30Z"/>
  <path fill="#adbfb9" d="M723.5 131.5c16.204-2.163 30.871 1.504 44 11 2.947 3.9 1.947 5.4-3 4.5-5.606-4.637-11.939-7.971-19-10-10.027-.729-20.027-.563-30 .5-.262-1.478.071-2.811 1-4 2.482-.567 4.816-1.234 7-2Z"/>
  <path fill="#acc0b9" d="M525.5 235.5c-.462-1.38-1.462-2.047-3-2-7.264 2.146-14.597 2.479-22 1-28.239-15.036-34.073-36.369-17.5-64 18.565-20.955 41.398-27.455 68.5-19.5 19.061 6.946 26.561 20.446 22.5 40.5-3.543 17.544-13.209 30.544-29 39-.808 6.555-1.641 13.055-2.5 19.5-1.399.595-2.732.428-4-.5-4.35-4.74-8.683-9.407-13-14Z"/>
  <path fill="#fdfdfd" d="M523.5 152.5c16.421-1.804 30.588 2.863 42.5 14 8.389 21.063 3.889 38.896-13.5 53.5-3.81 2.313-7.476 4.813-11 7.5-1.217 4.95-2.217 9.95-3 15-3.314-4.448-6.98-8.615-11-12.5-23.559 5.306-39.726-3.194-48.5-25.5-1.77-18.959 5.396-33.459 21.5-43.5 7.375-3.852 15.041-6.685 23-8.5Z"/>
  <path fill="#b2c1bc" d="M760.5 171.5c4.464.798 6.797 3.464 7 8-4.047-.035-6.714-2.035-8-6 .363-.683.696-1.35 1-2Z"/>
  <path fill="#b5c3be" d="M752.5 174.5c2.124.531 3.624 1.865 4.5 4 .757 3.414-.41 4.414-3.5 3-1.869-2.222-2.202-4.555-1-7Z"/>
  <path fill="#b6c3be" d="M741.5 174.5c3.77 1.236 6.937 3.569 9.5 7 .684 1.284.517 2.451-.5 3.5-2.178.165-4.011-.668-5.5-2.5-.615-1.616-1.615-2.949-3-4-.49-1.293-.657-2.627-.5-4Z"/>
  <path fill="#acc0b8" d="M529.5 171.5c2.104-.299 4.104.034 6 1 2.129 5.252 3.962 10.585 5.5 16 4.069 3.858 5.402 8.525 4 14-10.073 4.752-20.239 9.419-30.5 14-4.86-9.395-8.86-19.229-12-29.5 1-2.333 2.667-4 5-5 7.587-3.296 14.92-6.796 22-10.5Z"/>
  <path fill="#f6fbf8" d="M524.5 179.5c1 0 2 0 3 0-.254 3.942-1.754 7.275-4.5 10-2.961-1.879-6.127-3.379-9.5-4.5 3.692-1.942 7.358-3.776 11-5.5Z"/>
  <path fill="#d7d8d8" d="M663.5 184.5c-.709-.904-1.709-1.237-3-1 .683-1.676 2.017-2.343 4-2 .237 1.291-.096 2.291-1 3Z"/>
  <path fill="#f9fbfb" d="M531.5 180.5c.876-.131 1.543.202 2 1 1.55 4.161 3.384 8.161 5.5 12 .991 1.947 1.325 3.947 1 6-7.582 4.035-15.416 7.701-23.5 11-3.1-7.467-6.1-14.967-9-22.5 4.61 1.134 8.943 3.134 13 6 2.254 1.15 4.587 1.484 7 1 1.84-4.687 3.173-9.52 4-14.5Z"/>
  <path fill="#adc0b9" d="M766.5 158.5c12.83 5.826 22.496 15.159 29 28 5.091 10.097 7.591 20.763 7.5 32-1.509 2.419-3.675 3.419-6.5 3-.188-1.603.312-2.937 1.5-4 .667-3.333.667-6.667 0-10-3.237-11.138-8.071-21.472-14.5-31-5.392-5.562-11.225-10.562-17.5-15-.47-1.077-.303-2.077.5-3Z"/>
  <path fill="#aec0ba" d="M660.5 183.5c1.291-.237 2.291.096 3 1-1.949 6.845-2.449 13.845-1.5 21 3.425 2.396 3.259 4.396-.5 6-3.997-3.17-5.664-7.337-5-12.5.041-5.601 1.374-10.768 4-15.5Z"/>
  <path fill="#aec0b9" d="M687.5 180.5c1.422.209 2.755.709 4 1.5 4.387 4.387 8.721 8.721 13 13 4.579 1.79 9.245 3.29 14 4.5 4.27 2.424 3.936 4.09-1 5-14.531-2.549-24.531-10.549-30-24Z"/>
  <path fill="#acc0b8" d="M709.5 181.5c1.175-.219 2.175.114 3 1 6.465 8.461 14.465 15.127 24 20 2.768 2.125 2.601 3.791-.5 5-10.339-4.848-19.005-11.848-26-21-.494-1.634-.66-3.301-.5-5Z"/>
  <path fill="#afc1bb" d="M680.5 201.5c5.125.031 10.125.864 15 2.5 1.304 2.478.47 3.978-2.5 4.5-8.604-3.275-16.604-2.275-24 3-2.009-.982-2.509-2.315-1.5-4 4.029-2.85 8.362-4.85 13-6Z"/>
  <path fill="#afc0ba" d="M641.5 180.5c1.859-.039 3.192.794 4 2.5-10.097 8.005-14.763 18.172-14 30.5-2.266.359-4.099-.308-5.5-2-1.877-6.825-.21-13.158 3.5-19 3.365-4.193 6.865-8.193 10.5-12Z"/>
  <path fill="#aebfb9" d="M649.5 185.5c1 0 2 0 3 0-2.212 5.719-3.546 11.719-4 18 .225 4.84 1.558 9.34 4 13.5-2.201.825-4.034.325-5.5-1.5-4.93-10.546-4.096-20.546 2.5-30Z"/>
  <path fill="#acc0b8" d="M740.5 206.5c5.301-.401 9.801 1.266 13.5 5 7.003 11.242 7.169 22.409.5 33.5-2.141.884-3.807.384-5-1.5 6.952-10.407 6.619-20.573-1-30.5-3.291-2.074-6.457-1.908-9.5.5-.499 3.652-.665 7.318-.5 11-1.333 0-2.667 0-4 0-.94-3.963-1.107-7.963-.5-12 1.914-2.356 4.081-4.356 6.5-6Z"/>
  <path fill="#abc0b8" d="M681.5 225.5c5.305.577 7.138 3.577 5.5 9-4.763 3.327-7.263 1.993-7.5-4 .224-1.955.891-3.621 2-5Z"/>
  <path fill="#acc0b9" d="M785.5 210.5c1.322-.17 2.489.163 3.5 1 .206 7.858-.294 15.692-1.5 23.5.428 5.442 1.761 10.608 4 15.5.047 1.5-.619 2.5-2 3-3.043-2.592-4.876-5.925-5.5-10-.608-11.054-.108-22.054 1.5-33Z"/>
  <path fill="#ebf4ef" d="M525.5 235.5c-5.175.149-10.342.482-15.5 1-3.477.172-6.644-.494-9.5-2 7.403 1.479 14.736 1.146 22-1 1.538-.047 2.538.62 3 2Z"/>
  <path fill="#acbfb8" d="M391.5 219.5c24.42-3.062 38.753 7.438 43 31.5-2.778 14.552-8.778 27.552-18 39 2.79 3.746 5.457 7.579 8 11.5-.333 1.667-1.333 2.667-3 3-5.128-2.733-10.128-5.733-15-9-10.037 6.376-21.037 8.876-33 7.5-13.722-4.727-22.222-14.227-25.5-28.5-2.034-10.817-.034-20.817 6-30 9.541-13.004 22.041-21.337 37.5-25Z"/>
  <path fill="#fcfdfd" d="M391.5 224.5c24.368-2.933 36.868 7.734 37.5 32-3.585 11.841-9.252 22.507-17 32-.195 1.707-.195 3.374 0 5-1.684-1.566-3.684-2.566-6-3-9.945 6.215-20.779 8.715-32.5 7.5-16.693-7.881-23.526-21.047-20.5-39.5 7.07-17.906 19.903-29.239 38.5-34Z"/>
  <path fill="#acbfb8" d="M391.5 237.5c2.292-.256 4.459.077 6.5 1 2.135 6.266 4.801 12.266 8 18 3.13 3.625 5.63 7.625 7.5 12-.324 2.829-1.657 3.496-4 2-7.344 5.255-15.178 9.588-23.5 13-6.76-10.355-12.593-21.188-17.5-32.5.601-1.605 1.601-2.938 3-4 7.019-2.713 13.685-5.879 20-11.5Z"/>
  <path fill="#f5f8f7" d="M392.5 242.5c.876-.131 1.543.202 2 1 2.955 7.91 6.955 15.243 12 22-1.523 2.688-2.857 2.522-4-.5-4.826.178-5.159 1.678-1 4.5-3.87 3.434-8.203 6.101-13 8-5.76-8.126-10.76-16.792-15-26 4.546-2.105 9.213-3.939 14-5.5 1.931-.902 3.597-2.069 5-3.5Z"/>
  <path fill="#b8bebc" d="M392.5 267.5c5.267 1.062 5.267 2.062 0 3 0-1 0-2 0-3Z"/>
  <path fill="#b5bfbb" d="M382.5 261.5c3.41-.116 4.744 1.55 4 5-3.41.116-4.744-1.55-4-5Z"/>
  <path fill="#bac0be" d="M387.5 259.5h4c0 1.333 0 2.667 0 4-3 .333-4.333-1-4-4Z"/>
  <path fill="#bac6c2" d="M394.5 255.5c3.661-.15 4.661 1.35 3 4.5-.948.483-1.948.649-3 .5 0-1.667 0-3.333 0-5Z"/>
  <path fill="#b6c4be" d="M381.5 250.5h4c0 1.333 0 2.667 0 4-2.185.388-4.018 1.388-5.5 3-2.157-.885-2.99-2.552-2.5-5 1.983.343 3.317-.324 4-2Z"/>
  <path fill="#b9c1be" d="M388.5 247.5c2.412.194 3.412 1.527 3 4h-4c-.067-1.459.266-2.792 1-4Z"/>
  <path fill="#b5c2bd" d="M387.5 269.5c2.797.467 4.131 2.133 4 5-4.429.583-5.763-1.084-4-5Z"/>
  <path fill="#aec1ba" d="M917.5 311.5c-2.155-1.432-4.488-2.599-7-3.5 9.062-.679 9.062-2.179 0-4.5-2.367.342-4.7.842-7 1.5.778 3.708-.555 6.708-4 9 3.726 1.043 3.393 1.543-1 1.5.459-4.988 1.792-9.655 4-14 5.117.264 10.117 1.097 15 2.5 1.279 2.498 1.279 4.998 0 7.5Z"/>
  <path fill="#a7bfb5" d="M917.5 311.5c-10.163 33.168-18.497 66.834-25 101-4.603.883-9.27 1.217-14 1 .521-3.981.854-7.981 1-12 2.792-29.649 9.126-58.316 19-86 4.393.043 4.726-.457 1-1.5 3.445-2.292 4.778-5.292 4-9 2.3-.658 4.633-1.158 7-1.5 9.062 2.321 9.062 3.821 0 4.5 2.512.901 4.845 2.068 7 3.5Z"/>
  <path fill="#adc0b9" d="M545.5 442.5c-1.322.17-2.489-.163-3.5-1-18.848-33.723-35.681-68.39-50.5-104-4.806-.606-8.806 1.061-12 5 13.881 35.643 29.881 70.309 48 104 .821 2.947 1.321 5.947 1.5 9 .261-8.934 4.761-12.767 13.5-11.5 6.522 5.418 6.522 10.918 0 16.5-3.079.24-6.079-.093-9-1-1.196.346-1.196.846 0 1.5 1 .5 2 1 3 1.5 3.031-1.325 6.031-1.325 9 0 0 .667 0 1.333 0 2-7.711 4.869-14.044 3.535-19-4-.432-1.21-1.099-2.21-2-3-.39-3.339-.89-6.673-1.5-10-18.515-34.532-35.015-70.032-49.5-106.5 5.519-5.593 12.186-8.76 20-9.5 7.605 14.885 14.438 30.219 20.5 46 10.851 21.037 21.684 42.037 32.5 63-.043.916-.376 1.583-1 2Z"/>
  <path fill="#adc0b9" d="M741.5 330.5c-2.39.946-4.556 2.279-6.5 4-.821 7.179-.655 14.179.5 21 1.009 18.719 4.175 37.052 9.5 55 3.372-4.077 5.705-8.744 7-14 1.874-13.613 3.041-27.279 3.5-41 1.333 0 2.667 0 4 0 .973 16.25-.527 32.25-4.5 48-3.398 7.398-8.564 13.231-15.5 17.5-6.789 1.758-13.622 3.258-20.5 4.5-11.629-.986-23.129-2.82-34.5-5.5-6.114-1.548-11.947-3.715-17.5-6.5-2.14 10.541-3.14 21.207-3 32 15.288 13.154 33.122 19.487 53.5 19 31.317-.07 55.484-13.07 72.5-39 5.755-13.829 9.421-28.162 11-43 1.049-1.607 2.549-2.273 4.5-2-3.086 56.586-32.92 86.253-89.5 89-11.073.038-21.74-1.962-32-6-2.909 1.539-6.076 2.205-9.5 2-5.024-.253-10.024-.753-15-1.5-.556-.383-.889-.883-1-1.5 7.031.733 14.031 1.233 21 1.5-.667-.333-1.333-.667-2-1 3.382-.176 6.715-.676 10-1.5-2.266-.814-4.6-1.314-7-1.5-.457-.414-.791-.914-1-1.5-6.968-.997-13.968-1.33-21-1 0 1.333 0 2.667 0 4-.333 0-.667 0-1 0 0-2 0-4 0-6 2.885.306 5.552-.027 8-1-1.293-1.796-2.793-3.463-4.5-5-1.202-2.177-1.702-4.511-1.5-7-9.278-1.07-18.278-3.236-27-6.5-.691-1.067-1.191-2.234-1.5-3.5-2.953 1.556-5.787 3.223-8.5 5-3.991-1.996-7.991-3.996-12-6-1.013-4.455-.513-8.789 1.5-13 10.469-16.255 24.969-21.089 43.5-14.5 3.667 2.333 7.333 4.667 11 7 12.029 2.34 24.029 5.006 36 8 11.213 2.526 22.213 1.859 33-2 2.576-.782 4.576-2.282 6-4.5-2.595-5.366-4.428-11.032-5.5-17-3.19-18.042-5.357-36.208-6.5-54.5.64-8.983 1.973-17.816 4-26.5.579-6.942-1.754-12.609-7-17-12.898 13.473-27.898 16.64-45 9.5-1.833-1.833-3.667-3.667-5.5-5.5-3.422-5.178-7.089-10.178-11-15-1.504-3.184-3.004-6.351-4.5-9.5-8.642-2.408-16.976-5.575-25-9.5-.787-.742-1.453-1.575-2-2.5 5.956-8.079 11.789-16.245 17.5-24.5 2.062-4.188 3.729-8.521 5-13 1.011-.837 2.178-1.17 3.5-1 .062 5.046-.938 9.879-3 14.5-4.553 7.606-9.72 14.772-15.5 21.5-.483.948-.649 1.948-.5 3 6.94 2.257 13.94 4.424 21 6.5 5.775 9.44 11.942 18.606 18.5 27.5 6.319 5.937 13.819 8.104 22.5 6.5 8.986-2.155 16.32-6.821 22-14 1.333-.667 2.667-.667 4 0 4.817 4.151 7.983 9.318 9.5 15.5.702 6.808.369 13.474-1 20 13.726-15.58 29.226-28.914 46.5-40-8.96-6.915-13.293-15.915-13-27-6.837-4.159-10.837-10.159-12-18 3.953.515 6.119 2.848 6.5 7 2.397 2.9 5.23 5.233 8.5 7 .333-.333.667-.667 1-1-1.761-2.064-2.095-4.231-1-6.5.667-.667 1.333-.667 2 0 2.016 4.22 4.849 7.72 8.5 10.5.483.948.649 1.948.5 3-3.713-.793-7.38-.793-11 0 2.057 8.967 6.723 16.134 14 21.5 6.541 1.511 12.541 4.178 18 8 22.478 16.089 38.311 37.256 47.5 63.5 8.072 30.478 12.906 61.478 14.5 93 .223 5.887-.277 11.887-1.5 18-1.079 1.894-2.413 2.227-4 1 .617-36.602-3.717-72.602-13-108-9.921-31.415-29.421-54.748-58.5-70-19.009 10.643-35.342 24.309-49 41Z"/>
  <path fill="#fafbfb" d="M627.5 417.5c1.548-.321 2.215-1.321 2-3-2.357.163-4.69-.003-7-.5.556-.383.889-.883 1-1.5 11.776-8.974 23.776-9.141 36-.5 1.528 1.648 2.195 3.648 2 6-.873 6.486-1.54 12.986-2 19.5-8.424-.774-16.424-3.107-24-7 1.578-.798 3.244-1.298 5-1.5 1.333-1 1.333-2 0-3-2.333-.667-4.667-.667-7 0-2.525 1.616-5.191 2.616-8 3 2.889-3.389 6.556-5.222 11-5.5 0-1.333 0-2.667 0-4-7.363.346-13.03 3.679-17 10-.908-1.29-.741-2.623.5-4 2.705-2.536 5.205-5.203 7.5-8Z"/>
  <path fill="#e8f2ee" d="M741.5 330.5c-1.402 1.983-3.236 3.649-5.5 5-.5 6.658-.666 13.325-.5 20-1.155-6.821-1.321-13.821-.5-21 1.944-1.721 4.11-3.054 6.5-4Z"/>
  <path fill="#afc1ba" d="M703.5 281.5c1.333 0 2.667 0 4 0 .16 1.699-.006 3.366-.5 5-5.974 6.656-13.307 9.323-22 8-.49-1.293-.657-2.627-.5-4 8.384.972 14.717-2.028 19-9Z"/>
  <path fill="#afc2bb" d="M879.5 401.5c-.146 4.019-.479 8.019-1 12 4.73.217 9.397-.117 14-.999-.878 5.055-1.878 10.055-3 15-2.356-3.34-2.189-6.34.5-9 .667-1.333.667-2.667 0-4-4.062.068-8.062.068-12 0 .07 3.492-.763 6.492-2.5 9 .853-7.55 2.187-14.884 4-22Z"/>
  <path fill="#e9f0ed" d="M623.5 412.5c-.111.617-.444 1.117-1 1.5 2.31.497 4.643.663 7 .5.215 1.679-.452 2.679-2 3-.704-1.844-2.037-2.344-4-1.5-3.175 2.843-6.009 6.01-8.5 9.5.032-2.098.699-4.098 2-6 1.716-2.878 3.883-5.212 6.5-7Z"/>
  <path fill="#a6bfb4" d="M889.5 427.5c-1.591 8.911-2.591 17.911-3 27-3.642 3.166-6.642 2.666-9-1.5-1.293-.49-2.627-.657-4-.5.741-5.971 1.075-11.971 1-17.999.052-3.698.386-7.365 1-11 1.737-2.508 2.57-5.508 2.5-9 3.938.068 7.938.068 12 0 .667 1.333.667 2.667 0 4-2.689 2.66-2.856 5.66-.5 9Z"/>
  <path fill="#cbd5d1" d="M557.5 444.5c-3.512-.555-6.512.112-9 2-.838-.342-1.172-1.008-1-2 3.333-1.333 6.667-1.333 10 0Z"/>
  <path fill="#b0c2bc" d="M557.5 444.5c26.991.728 53.991 1.228 81 1.5 3.525.179 6.859.679 10 1.5-26.949.146-53.782-.187-80.5-1-.167.333-.333.667-.5 1 1.102.676 2.102 1.342 3 2-7.04.087-14.04-.413-21-1.5-.556-.383-.889-.883-1-1.5 2.488-1.888 5.488-2.555 9-2Z"/>
  <path fill="#a2bab2" d="M648.5 447.5c-.111.617-.444 1.117-1 1.5-24.331.5-48.664.667-73 .5-1.333 0-2.667 0-4 0-.9-.658-1.9-1.324-3-2 .167-.333.333-.667.5-1 26.718.813 53.551 1.146 80.5 1Z"/>
  <path fill="#fbfcfc" d="M545.5 442.5c-.369 2.493.297 3.16 2 2-.172.992.162 1.658 1 2 .111.617.444 1.117 1 1.5 6.96 1.087 13.96 1.587 21 1.5 1.333 0 2.667 0 4 0 24.17.667 48.503 1.333 73 2 .667 2 1.333 4 2 6-33.353.834-66.687 2-100 3.5-1.184 1.145-1.184 2.312 0 3.5-1.333 0-2.667 0-4 0 0-.667 0-1.333 0-2 0-1.548-1-2.215-2.679-2 6.522-5.582 6.522-11.082 0-16.5-8.739-1.267-13.239 2.566-13.5 11.5-.079-3.053-.579-6.053-1.5-9-18.119-33.691-34.119-68.357-48-104 3.194-3.939 7.194-5.606 12-5 14.819 35.61 31.652 70.277 50.5 104 1.011.837 2.178 1.17 3.5 1Z"/>
  <path fill="#f6fbf9" d="M537.5 447.5c4.832 1.148 5.832 3.648 3 7.5-6.846.327-7.846-2.173-3-7.5Z"/>
  <path fill="#eaefed" d="M653.5 454.5h12c-2.448.973-5.115 1.306-8 1 0 2 0 4 0 6-.651-.591-1.318-1.257-2-2-.682.743-1.349 1.409-2 2 0-2.333 0-4.667 0-7Z"/>
  <path fill="#c0cdc9" d="M489.5 458.5c-1.333.667-2.667 1.333-4 2-6.333 0-12.667 0-19 0-2.333 0-4.667 0-7 0 9.83-.947 19.83-1.614 30-2Z"/>
  <path fill="#b0c1ba" d="M519.5 458.5c.672.767 1.505 1.434 2.5 2 .74 1.249.573 2.249-.5 3-2.233-.885-4.233-2.218-6-4-9.967.951-19.967 1.284-30 1 1.333-.667 2.667-1.333 4-2 9.993-.093 19.993-.093 30 0Z"/>
  <path fill="#b2c4bc" d="M648.5 447.5c2.877 1.404 4.544 3.737 5 7 0 2.333 0 4.667 0 7-1.109.057-2.109.39-3 1-3.911-1.524-8.078-2.524-12.5-3-21.469.817-42.969 1.317-64.5 1.5 24.788 1.128 49.454 1.961 74 2.5-22.674-.055-45.341.278-68 1-9.817-.352-19.817-.352-30 0-1.184-1.188-1.184-2.355 0-3.5 33.313-1.5 66.647-2.666 100-3.5-.667-2-1.333-4-2-6-24.333.667-48.667 1.333-73 2-24.333.167-48.666 0-73-.5.556-.383.889-.883 1-1.5Z"/>
  <path fill="#a4bdb3" d="M658.5 462.5c0-.333 0-.667 0-1 0-1.333 0-2.667 0-4 7.032-.33 14.032.003 21 1 .209.586.543 1.086 1 1.5 2.4.186 4.734.686 7 1.5-3.285.824-6.618 1.324-10 1.5.667.333 1.333.667 2 1-6.969-.267-13.969-.767-21-1.5Z"/>
  <path fill="#b2c1bc" d="M459.5 460.5c2.333 0 4.667 0 7 0-11.927.602-23.927 1.935-36 4-8.311-1.075-16.645-1.241-25-.5.192 2.4-.141 4.9-1 7.5-1.205-1.172-1.205-2.505 0-4-1.77-1.32-2.103-2.82-1-4.5 18.658-1.115 37.324-1.948 56-2.5Z"/>
  <path fill="#dde9e3" d="M542.5 460.5c1.679-.215 2.679.452 3 2-2.969-1.325-5.969-1.325-9 0-1-.5-2-1-3-1.5 1.196-.346 1.196-.846 0-1.196 2.921.907 5.921 1.24 9 1Z"/>
  <path fill="#a1baaf" d="M650.5 462.5c-1.109.057-2.109.39-3 1-24.546-.539-49.212-1.372-74-2.5 21.531-.183 43.031-.683 64.5-1.5 4.422.476 8.589 1.476 12.5 3Z"/>
  <path fill="#aec1b8" d="M874.5 434.5c.075 6.029-.259 12.029-1 18 1.373-.157 2.707.01 4 .5 2.358 4.166 5.358 4.666 9 1.5.468 4.191-.865 7.524-4 10-1.333-1-2.667-2-4-3-1.909.848-3.909 1.182-6 1-.155-9.541.512-18.874 2-28Z"/>
  <path fill="#e2ebe8" d="M579.5 464.5c-10.161 1.063-20.161 1.063-30 0 10.183-.352 20.183-.352 30 0Z"/>
  <path fill="#e8edea" d="M524.5 457.5c.901.79 1.568 1.79 2 3-1.25.077-2.083.744-2.5 2-.495 1.973-.662 3.973-.5 6-1.333 0-2.667 0-4 0 1.051-.722 1.718-1.722 2-3 0-.667 0-1.333 0-2 1.073-.751 1.24-1.751.5-3-.995-.616-1.828-1.283-2.5-2 1.774-.517 3.441-.85 5-1Z"/>
  <path fill="#b4bfba" d="M521.5 465.5c-.282 1.278-.949 2.278-2 3-13.333 0-26.667 0-40 0 11.826-.831 23.826-1.331 36-1.5 2.018-.505 4.018-1.005 6-1.5Z"/>
  <path fill="#a8bfb6" d="M521.5 463.5c0 .667 0 1.333 0 2-1.982.495-3.982.995-6 1.5-12.174.169-24.174.669-36 1.5-2.787.977-5.787 1.31-9 1-17.215-.063-34.215.937-51 3-5.195.321-10.195-.013-15-1 .859-2.6 1.192-5.1 1-7.5 8.355-.741 16.689-.575 25 .5 12.073-2.065 24.073-3.398 36-4 6.333 0 12.667 0 19 0 9.967.333 19.967 0 30-1 1.767 1.782 3.767 3.115 6 4Z"/>
  <path fill="#eaf3ee" d="M470.5 469.5c-16.826 1.343-33.826 2.343-51 3 16.785-2.063 33.785-3.063 51-3Z"/>
</svg>